<?xml version="1.0" encoding="UTF-8" standalone="no"?><svg xmlns="http://www.w3.org/2000/svg" xmlns:xlink="http://www.w3.org/1999/xlink" contentStyleType="text/css" height="883px" preserveAspectRatio="none" style="width:1137px;height:883px;background:#FFFFFF;" version="1.1" viewBox="0 0 1137 883" width="1137px" zoomAndPan="magnify"><defs/><g><g id="elem_Approved"><ellipse cx="347.4096" cy="680.8819" fill="#98FB98" rx="62.4096" ry="14.8819" style="stroke:#008000;stroke-width:2.0;"/><text fill="#008000" font-family="sans-serif" font-size="14" lengthAdjust="spacing" textLength="71" x="308.9096" y="684.6295">Approved</text></g><g id="elem_Responded"><ellipse cx="568.2655" cy="681.0531" fill="#FFFF00" rx="65.7655" ry="15.5531" style="stroke:#FFD700;stroke-width:1.0;stroke-dasharray:7.0,7.0;"/><text fill="#FFD700" font-family="sans-serif" font-size="14" lengthAdjust="spacing" textLength="81" x="524.7655" y="684.8007">Responded</text></g><g id="elem_Rejected"><ellipse cx="767.5731" cy="680.7619" fill="#FFC0CB" rx="58.5731" ry="14.7619" style="stroke:#FF0000;stroke-width:2.0;"/><text fill="#FF0000" font-family="sans-serif" font-size="14" lengthAdjust="spacing" textLength="65" x="732.0731" y="684.5095">Rejected</text></g><g id="elem_Create a Package"><ellipse cx="88.712" cy="211.9424" fill="#00FFFF" rx="82.712" ry="18.9424" style="stroke:#0000FF;stroke-width:2.0;"/><text fill="#0000FF" font-family="sans-serif" font-size="14" lengthAdjust="spacing" textLength="125" x="25.5208" y="215.0215">Create a Package</text></g><g id="elem_Select a New Package"><ellipse cx="421.3591" cy="212.1718" fill="#00FFFF" rx="96.3591" ry="21.6718" style="stroke:#0000FF;stroke-width:2.0;"/><text fill="#0000FF" font-family="sans-serif" font-size="14" lengthAdjust="spacing" textLength="156" x="343.3591" y="215.0185">Select a New Package</text></g><g id="elem_Select a Responded Package"><ellipse cx="571.334" cy="847.8668" fill="#FFA500" rx="119.834" ry="26.3668" style="stroke:#FF4500;stroke-width:1.0;stroke-dasharray:7.0,7.0;"/><text fill="#FF4500" font-family="sans-serif" font-size="14" lengthAdjust="spacing" textLength="207" x="467.834" y="850.7135">Select a Responded Package</text></g><g id="elem_Package ready for Republishing"><ellipse cx="1002.2813" cy="848.1563" fill="#FFA500" rx="128.7813" ry="28.1563" style="stroke:#FF4500;stroke-width:1.0;stroke-dasharray:7.0,7.0;"/><text fill="#FF4500" font-family="sans-serif" font-size="14" lengthAdjust="spacing" textLength="226" x="889.2813" y="851.0029">Package ready for Republishing</text></g><g id="elem_Package Available in Marketplace"><ellipse cx="252.4233" cy="847.9847" fill="#98FB98" rx="135.4233" ry="29.4847" style="stroke:#008000;stroke-width:2.0;"/><text fill="#008000" font-family="sans-serif" font-size="14" lengthAdjust="spacing" textLength="240" x="132.4233" y="850.8313">Package Available in Marketplace</text></g><!--MD5=[6789ea048b2bbfb060289d8ff94a9a7c]
entity User_1--><g id="elem_User_1"><ellipse cx="88.5" cy="22" fill="#F1F1F1" rx="16" ry="16" style="stroke:#181818;stroke-width:1.5;"/><path d="M88.5,42 C92.5,42 95.5,42 99.5,38 C107.5,38 115.5,46 115.5,54 L115.5,58 C115.5,62 111.5,66 107.5,66 L69.5,66 C65.5,66 61.5,62 61.5,58 L61.5,54 C61.5,46 69.5,38 77.5,38 C81.5,42 84.5,42 88.5,42 " fill="#F1F1F1" style="stroke:#181818;stroke-width:1.5;"/><text fill="#000000" font-family="sans-serif" font-size="14" lengthAdjust="spacing" textLength="47" x="65" y="80.4951">User_1</text></g><!--MD5=[64245a61f73376b6dae6f5674bd162fc]
entity User_2--><g id="elem_User_2"><ellipse cx="287.5" cy="22" fill="#F1F1F1" rx="16" ry="16" style="stroke:#181818;stroke-width:1.5;"/><path d="M287.5,42 C291.5,42 294.5,42 298.5,38 C306.5,38 314.5,46 314.5,54 L314.5,58 C314.5,62 310.5,66 306.5,66 L268.5,66 C264.5,66 260.5,62 260.5,58 L260.5,54 C260.5,46 268.5,38 276.5,38 C280.5,42 283.5,42 287.5,42 " fill="#F1F1F1" style="stroke:#181818;stroke-width:1.5;"/><text fill="#000000" font-family="sans-serif" font-size="14" lengthAdjust="spacing" textLength="46" x="264.5" y="80.4951">User_2</text></g><!--MD5=[455e6e2cd5a7577dc856615ef818768c]
entity Approver--><g id="elem_Approver"><ellipse cx="561.5" cy="328" fill="#F1F1F1" rx="16" ry="16" style="stroke:#181818;stroke-width:1.5;"/><path d="M561.5,348 C565.5,348 568.5,348 572.5,344 C580.5,344 588.5,352 588.5,360 L588.5,364 C588.5,368 584.5,372 580.5,372 L542.5,372 C538.5,372 534.5,368 534.5,364 L534.5,360 C534.5,352 542.5,344 550.5,344 C554.5,348 557.5,348 561.5,348 " fill="#F1F1F1" style="stroke:#181818;stroke-width:1.5;"/><text fill="#000000" font-family="sans-serif" font-size="14" lengthAdjust="spacing" textLength="68" x="527.5" y="386.4951">Approver</text></g><!--MD5=[ece1156f466ed684a7cd8264feb25ad8]
link User_1 to Create a Package--><g id="link_User_1_Create a Package"><path d="M88.5,83.501 C88.5,115.646 88.5,160.435 88.5,187.478 " fill="none" id="User_1-to-Create a Package" style="stroke:#0000FF;stroke-width:2.0;"/><polygon fill="#0000FF" points="88.5,192.641,92.5,183.641,88.5,187.641,84.5,183.641,88.5,192.641" style="stroke:#0000FF;stroke-width:2.0;"/><text fill="#0000FF" font-family="sans-serif" font-size="13" lengthAdjust="spacing" textLength="89" x="89.5" y="126.5669">Unable to find</text><text fill="#0000FF" font-family="sans-serif" font-size="13" lengthAdjust="spacing" textLength="80" x="96" y="141.6997">your desired</text><text fill="#0000FF" font-family="sans-serif" font-size="13" lengthAdjust="spacing" textLength="54" x="109" y="156.8325">package</text></g><!--MD5=[6dfebb8d9b36728ae73aa78852a366d3]
link User_2 to Select a New Package--><g id="link_User_2_Select a New Package"><path d="M316.246,80.611 C342.047,112.573 379.229,158.634 401.798,186.593 " fill="none" id="User_2-to-Select a New Package" style="stroke:#0000FF;stroke-width:2.0;"/><polygon fill="#0000FF" points="405.019,190.583,402.4803,181.067,401.8792,186.6918,396.2544,186.0907,405.019,190.583" style="stroke:#0000FF;stroke-width:2.0;"/><text fill="#0000FF" font-family="sans-serif" font-size="13" lengthAdjust="spacing" textLength="148" x="381" y="134.0669">Choose a package that</text><text fill="#0000FF" font-family="sans-serif" font-size="13" lengthAdjust="spacing" textLength="147" x="383.5" y="149.1997">have its Status as New</text></g><!--MD5=[5d5701688cd433972521dfeb8d135617]
link Create a Package to Select a New Package--><g id="link_Create a Package_Select a New Package"><path d="M171.242,212 C216.125,212 271.988,212 319.54,212 " fill="none" id="Create a Package-to-Select a New Package" style="stroke:#0000FF;stroke-width:2.0;"/><polygon fill="#0000FF" points="324.704,212,315.704,208,319.704,212,315.704,216,324.704,212" style="stroke:#0000FF;stroke-width:2.0;"/><text fill="#0000FF" font-family="sans-serif" font-size="13" lengthAdjust="spacing" textLength="74" x="211" y="190.0669">Navigate to</text><text fill="#0000FF" font-family="sans-serif" font-size="13" lengthAdjust="spacing" textLength="114" x="193" y="205.1997">MyPackges Folder</text></g><!--MD5=[0a49cf4596c4e2424b9fa027dbe9cc95]
link Select a New Package to Approver--><g id="link_Select a New Package_Approver"><path d="M442.157,233.067 C463.544,253.843 497.432,286.763 523.642,312.224 " fill="none" id="Select a New Package-to-Approver" style="stroke:#00008B;stroke-width:2.0;"/><polygon fill="#00008B" points="527.451,315.924,523.7821,306.784,523.8644,312.4403,518.2082,312.5225,527.451,315.924" style="stroke:#00008B;stroke-width:2.0;"/><text fill="#00008B" font-family="sans-serif" font-size="13" lengthAdjust="spacing" textLength="196" x="488.5" y="276.5669">Click on Publish to Marketplace</text></g><!--MD5=[1ebe4c0e9b089ec24b1544908244888d]
link Approver to Approved--><g id="link_Approver_Approved"><path d="M527.345,383.559 C496.47,414.345 451.272,462.939 420.5,511.5 C388.59,561.857 364.347,628.552 353.597,660.849 " fill="none" id="Approver-to-Approved" style="stroke:#008000;stroke-width:2.0;"/><polygon fill="#008000" points="351.988,665.729,358.6051,658.4342,353.5537,660.9805,351.0074,655.9291,351.988,665.729" style="stroke:#008000;stroke-width:2.0;"/><text fill="#008000" font-family="sans-serif" font-size="13" lengthAdjust="spacing" textLength="135" x="421.5" y="524.5669">Approver installs and</text><text fill="#008000" font-family="sans-serif" font-size="13" lengthAdjust="spacing" textLength="115" x="433.5" y="539.6997">tests the package</text><text fill="#008000" font-family="sans-serif" font-size="13" lengthAdjust="spacing" textLength="108" x="437" y="554.8325">for its successful</text><text fill="#008000" font-family="sans-serif" font-size="13" lengthAdjust="spacing" textLength="101" x="440.5" y="569.9653">implementation</text></g><!--MD5=[8d4de3c4a3fe3ced7a6e884dad67e35d]
link Approver to Responded--><g id="link_Approver_Responded"><path d="M562.324,389.708 C563.823,460.159 566.946,606.963 568.078,660.187 " fill="none" id="Approver-to-Responded" style="stroke:#FFD700;stroke-width:1.0;stroke-dasharray:7.0,7.0;"/><polygon fill="#FFD700" points="568.188,665.332,571.9942,656.2483,568.0809,660.3331,563.9961,656.4198,568.188,665.332" style="stroke:#FFD700;stroke-width:1.0;"/><text fill="#FFD700" font-family="sans-serif" font-size="13" lengthAdjust="spacing" textLength="134" x="567.5" y="539.5669">Comments has been</text><text fill="#FFD700" font-family="sans-serif" font-size="13" lengthAdjust="spacing" textLength="118" x="577.5" y="554.6997">given by Approver</text></g><!--MD5=[69bb084a581c6234734a5fb695cfd3a9]
link Approver to Rejected--><g id="link_Approver_Rejected"><path d="M595.511,379.734 C628.948,409.607 679.368,459.236 710.5,511.5 C740.053,561.113 756.845,628.151 763.75,660.687 " fill="none" id="Approver-to-Rejected" style="stroke:#FF0000;stroke-width:2.0;"/><polygon fill="#FF0000" points="764.774,665.604,766.8542,655.9773,763.7542,660.7091,759.0224,657.6091,764.774,665.604" style="stroke:#FF0000;stroke-width:2.0;"/><text fill="#FF0000" font-family="sans-serif" font-size="13" lengthAdjust="spacing" textLength="128" x="767.5" y="532.0669">Action mentioned in</text><text fill="#FF0000" font-family="sans-serif" font-size="13" lengthAdjust="spacing" textLength="180" x="743.5" y="547.1997">the package documentation</text><text fill="#FF0000" font-family="sans-serif" font-size="13" lengthAdjust="spacing" textLength="118" x="774.5" y="562.3325">has been violated.</text></g><!--MD5=[e5aff40278e33b71b82df2ccf5e73bce]
link Responded to Select a Responded Package--><g id="link_Responded_Select a Responded Package"><path d="M568.766,696.643 C569.253,723.404 570.295,780.7316 570.943,816.358 " fill="none" id="Responded-to-Select a Responded Package" style="stroke:#FF4500;stroke-width:1.0;stroke-dasharray:7.0,7.0;"/><polygon fill="#FF4500" points="571.035,821.4506,574.8705,812.3793,570.944,816.4514,566.8718,812.5249,571.035,821.4506" style="stroke:#FF4500;stroke-width:1.0;"/><text fill="#FF4500" font-family="sans-serif" font-size="13" lengthAdjust="spacing" textLength="202" x="571.5" y="739.5669">Naviagte to My Packages folder</text><text fill="#FF4500" font-family="sans-serif" font-size="13" lengthAdjust="spacing" textLength="126" x="609.5" y="754.6997">Find a package that</text><text fill="#FF4500" font-family="sans-serif" font-size="13" lengthAdjust="spacing" textLength="119" x="615" y="769.8325">bears its Status as</text><text fill="#FF4500" font-family="sans-serif" font-size="13" lengthAdjust="spacing" textLength="72" x="638.5" y="784.9653">Responded</text></g><!--MD5=[317e1bc05e03e5c5247999d05a693a72]
link Select a Responded Package to Package ready for Republishing--><g id="link_Select a Responded Package_Package ready for Republishing"><path d="M691.558,848 C746.442,848 811.678,848 868.189,848 " fill="none" id="Select a Responded Package-to-Package ready for Republishing" style="stroke:#FF4500;stroke-width:1.0;stroke-dasharray:7.0,7.0;"/><polygon fill="#FF4500" points="873.282,848,864.282,844,868.282,848,864.282,852,873.282,848" style="stroke:#FF4500;stroke-width:1.0;"/><text fill="#FF4500" font-family="sans-serif" font-size="13" lengthAdjust="spacing" textLength="139" x="713" y="811.0669">View and Resolve the</text><text fill="#FF4500" font-family="sans-serif" font-size="13" lengthAdjust="spacing" textLength="140" x="714.5" y="826.1997">comments suggested</text><text fill="#FF4500" font-family="sans-serif" font-size="13" lengthAdjust="spacing" textLength="79" x="745" y="841.3325">by Approver</text></g><!--MD5=[e8a320f25c7f967e4d597cc30e4501aa]
link Package ready for Republishing to Approver--><g id="link_Package ready for Republishing_Approver"><path d="M1004.687,819.5674 C1008.13,757.386 1007.89,603.956 932.5,511.5 C846.419,405.937 677.607,368.185 600.993,356.099 " fill="none" id="Package ready for Republishing-to-Approver" style="stroke:#00008B;stroke-width:2.0;"/><polygon fill="#00008B" points="595.639,355.272,603.9233,360.5983,600.5805,356.0349,605.1439,352.692,595.639,355.272" style="stroke:#00008B;stroke-width:2.0;"/><text fill="#00008B" font-family="sans-serif" font-size="13" lengthAdjust="spacing" textLength="120" x="989.5" y="616.5669">Click on Re-Publish</text><text fill="#00008B" font-family="sans-serif" font-size="13" lengthAdjust="spacing" textLength="94" x="1004.5" y="631.6997">to Marketplace</text></g><!--MD5=[f5c409026492a49ee6da11725a80c4b3]
link User_2 to Package Available in Marketplace--><g id="link_User_2_Package Available in Marketplace"><path d="M263.682,83.686 C245.842,116.372 224.5,165.071 224.5,211 C224.5,211 224.5,211 224.5,682 C224.5,727.921 235.172,780.0294 243.339,813.1837 " fill="none" id="User_2-to-Package Available in Marketplace" style="stroke:#008000;stroke-width:2.0;"/><polygon fill="#008000" points="244.626,818.3382,246.3255,808.6371,243.4142,813.4873,238.564,810.576,244.626,818.3382" style="stroke:#008000;stroke-width:2.0;"/><text fill="#008000" font-family="sans-serif" font-size="13" lengthAdjust="spacing" textLength="103" x="226.5" y="432.5669">User can search</text><text fill="#008000" font-family="sans-serif" font-size="13" lengthAdjust="spacing" textLength="101" x="229.5" y="447.6997">any package as</text><text fill="#008000" font-family="sans-serif" font-size="13" lengthAdjust="spacing" textLength="54" x="253" y="462.8325">per their</text><text fill="#008000" font-family="sans-serif" font-size="13" lengthAdjust="spacing" textLength="79" x="240.5" y="477.9653">requirement</text></g><!--MD5=[c63f235061ab2fb00098db09f6c3deee]
link Approved to Package Available in Marketplace--><g id="link_Approved_Package Available in Marketplace"><path d="M339.4,696.068 C324.499,721.949 292.369,777.7531 271.629,813.7755 " fill="none" id="Approved-to-Package Available in Marketplace" style="stroke:#008000;stroke-width:2.0;"/><polygon fill="#008000" points="268.907,818.5034,276.8635,812.6988,271.4013,814.17,269.9301,808.7078,268.907,818.5034" style="stroke:#008000;stroke-width:2.0;"/><text fill="#008000" font-family="sans-serif" font-size="13" lengthAdjust="spacing" textLength="148" x="324.5" y="754.5669">Approver publishes the</text><text fill="#008000" font-family="sans-serif" font-size="13" lengthAdjust="spacing" textLength="152" x="324.5" y="769.6997">package to Marketplace</text></g><!--MD5=[c1abb3b1d804a27a5210c0e0d307b691]
@startuml
skinparam actorStyle awesome
usecase Approved #palegreen;line:green;line.bold;text:green
usecase Responded #yellow;line:gold;line.dashed;text:gold
usecase Rejected #pink;line:red;line.bold;text:red
usecase (Create a Package) #cyan;line:blue;line.bold;text:blue
usecase (Select a New Package) #cyan;line:blue;line.bold;text:blue
usecase (Select a Responded Package) #orange;line:orangered;line.dashed;text:orangered
usecase (Package ready for Republishing) #orange;line:orangered;line.dashed;text:orangered
usecase (Package Available in Marketplace) #palegreen;line:green;line.bold;text:green
:User_1: - -> (Create a Package) #blue;line.bold;text:blue : Unable to find\n your desired\n package 
:User_2: - -> (Select a New Package) #blue;line.bold;text:blue : Choose a package that\n have its Status as New 
(Create a Package) -> (Select a New Package) #blue;line.bold;text:blue : Navigate to\n MyPackges Folder
(Select a New Package) - -> :Approver: #darkblue;line.bold;text:darkblue : Click on Publish to Marketplace 
:Approver: - - -> (Approved) #green;line.bold;text:green : Approver installs and\n tests the package\n for its successful\n implementation
:Approver: - - -> (Responded) #gold;line.dashed;text:gold : Comments has been\n given by Approver
:Approver: - - -> (Rejected) #red;line.bold;text:red : Action mentioned in\n the package documentation\n has been violated.
(Responded) - -> (Select a Responded Package) #orangered;line.dashed;text:orangered : Naviagte to My Packages folder\nFind a package that\n bears its Status as\n Responded
(Select a Responded Package) -> (Package ready for Republishing) #orangered;line.dashed;text:orangered : View and Resolve the\n comments suggested\n by Approver
(Package ready for Republishing) -> :Approver: #darkblue;line.bold;text:darkblue : Click on Re-Publish\n to Marketplace
:User_2: - -> (Package Available in Marketplace) #green;line.bold;text:green : User can search\n any package as\n per their\n requirement
(Approved) - -> (Package Available in Marketplace) #green;line.bold;text:green : Approver publishes the\n package to Marketplace
@enduml

PlantUML version 1.2022.7beta1(Unknown compile time)
(GPL source distribution)
Java Runtime: Java(TM) SE Runtime Environment
JVM: Java HotSpot(TM) 64-Bit Server VM
Default Encoding: UTF-8
Language: en
Country: US
--></g></svg>